<?xml version="1.0" encoding="UTF-8" standalone="no"?>
<!DOCTYPE svg PUBLIC "-//W3C//DTD SVG 1.1//EN"
 "http://www.w3.org/Graphics/SVG/1.1/DTD/svg11.dtd">
<!-- Generated by graphviz version 2.43.0 (0)
 -->
<!-- Title: G Pages: 1 -->
<svg width="648pt" height="279pt"
 viewBox="0.00 0.00 648.28 279.28" xmlns="http://www.w3.org/2000/svg" xmlns:xlink="http://www.w3.org/1999/xlink">
<g id="graph0" class="graph" transform="scale(1 1) rotate(0) translate(4 275.28)">
<title>G</title><style>.edge>path:hover{stroke-width:8}</style>
<polygon fill="white" stroke="transparent" points="-4,4 -4,-275.28 644.28,-275.28 644.28,4 -4,4"/>
<!-- datastructures -->
<g id="node1" class="node">
<title>datastructures</title><style>.edge>path:hover{stroke-width:8}</style>
<ellipse fill="#8f3d3d" stroke="black" cx="293.64" cy="-18" rx="51.43" ry="18"/>
<text text-anchor="middle" x="293.64" y="-15.5" font-family="Helvetica,sans-Serif" font-size="10.00" fill="#ffffff">datastructures</text>
</g>
<!-- datastructures_graphs -->
<g id="node2" class="node">
<title>datastructures_graphs</title><style>.edge>path:hover{stroke-width:8}</style>
<ellipse fill="#b83d3d" stroke="black" cx="247.64" cy="-93.21" rx="63.78" ry="21.43"/>
<text text-anchor="middle" x="247.64" y="-96.21" font-family="Helvetica,sans-Serif" font-size="10.00" fill="#ffffff">datastructures.</text>
<text text-anchor="middle" x="247.64" y="-85.21" font-family="Helvetica,sans-Serif" font-size="10.00" fill="#ffffff">graphs</text>
</g>
<!-- datastructures_graphs&#45;&gt;datastructures -->
<g id="edge1" class="edge">
<title>datastructures_graphs&#45;&gt;datastructures</title><style>.edge>path:hover{stroke-width:8}</style>
<path fill="none" stroke="black" d="M260.21,-72.21C265.56,-63.7 271.86,-53.67 277.54,-44.63"/>
<polygon fill="#b83d3d" stroke="black" points="280.6,-46.33 282.96,-36 274.67,-42.61 280.6,-46.33"/>
</g>
<!-- datastructures_heap -->
<g id="node3" class="node">
<title>datastructures_heap</title><style>.edge>path:hover{stroke-width:8}</style>
<ellipse fill="#d92626" stroke="black" cx="155.64" cy="-171.64" rx="63.78" ry="21.43"/>
<text text-anchor="middle" x="155.64" y="-174.64" font-family="Helvetica,sans-Serif" font-size="10.00" fill="#ffffff">datastructures.</text>
<text text-anchor="middle" x="155.64" y="-163.64" font-family="Helvetica,sans-Serif" font-size="10.00" fill="#ffffff">heap</text>
</g>
<!-- datastructures_heap&#45;&gt;datastructures -->
<g id="edge2" class="edge">
<title>datastructures_heap&#45;&gt;datastructures</title><style>.edge>path:hover{stroke-width:8}</style>
<path fill="none" stroke="black" d="M154.35,-150.26C154.06,-128.58 156.86,-94.4 174.64,-72 191.02,-51.37 217.12,-38.54 240.71,-30.69"/>
<polygon fill="#d92626" stroke="black" points="241.77,-34.02 250.29,-27.72 239.7,-27.34 241.77,-34.02"/>
</g>
<!-- datastructures_heap&#45;&gt;datastructures_graphs -->
<g id="edge3" class="edge">
<title>datastructures_heap&#45;&gt;datastructures_graphs</title><style>.edge>path:hover{stroke-width:8}</style>
<path fill="none" stroke="black" d="M178.38,-151.75C189.99,-142.1 204.29,-130.23 216.87,-119.78"/>
<polygon fill="#d92626" stroke="black" points="219.39,-122.23 224.84,-113.15 214.91,-116.85 219.39,-122.23"/>
</g>
<!-- datastructures_sorts -->
<g id="node6" class="node">
<title>datastructures_sorts</title><style>.edge>path:hover{stroke-width:8}</style>
<ellipse fill="#b83d3d" stroke="black" cx="63.64" cy="-93.21" rx="63.78" ry="21.43"/>
<text text-anchor="middle" x="63.64" y="-96.21" font-family="Helvetica,sans-Serif" font-size="10.00" fill="#ffffff">datastructures.</text>
<text text-anchor="middle" x="63.64" y="-85.21" font-family="Helvetica,sans-Serif" font-size="10.00" fill="#ffffff">sorts</text>
</g>
<!-- datastructures_heap&#45;&gt;datastructures_sorts -->
<g id="edge4" class="edge">
<title>datastructures_heap&#45;&gt;datastructures_sorts</title><style>.edge>path:hover{stroke-width:8}</style>
<path fill="none" stroke="black" d="M132.9,-151.75C121.29,-142.1 106.99,-130.23 94.41,-119.78"/>
<polygon fill="#d92626" stroke="black" points="96.37,-116.85 86.44,-113.15 91.89,-122.23 96.37,-116.85"/>
</g>
<!-- datastructures_linear -->
<g id="node4" class="node">
<title>datastructures_linear</title><style>.edge>path:hover{stroke-width:8}</style>
<ellipse fill="#db2f2f" stroke="black" cx="339.64" cy="-171.64" rx="63.78" ry="21.43"/>
<text text-anchor="middle" x="339.64" y="-174.64" font-family="Helvetica,sans-Serif" font-size="10.00" fill="#ffffff">datastructures.</text>
<text text-anchor="middle" x="339.64" y="-163.64" font-family="Helvetica,sans-Serif" font-size="10.00" fill="#ffffff">linear</text>
</g>
<!-- datastructures_linear&#45;&gt;datastructures -->
<g id="edge5" class="edge">
<title>datastructures_linear&#45;&gt;datastructures</title><style>.edge>path:hover{stroke-width:8}</style>
<path fill="none" stroke="black" d="M337.4,-150.18C334.79,-129.93 329.64,-98.23 320.64,-72 317.52,-62.92 313.1,-53.44 308.75,-45.05"/>
<polygon fill="#db2f2f" stroke="black" points="311.75,-43.26 303.92,-36.12 305.6,-46.59 311.75,-43.26"/>
</g>
<!-- datastructures_linear&#45;&gt;datastructures_graphs -->
<g id="edge6" class="edge">
<title>datastructures_linear&#45;&gt;datastructures_graphs</title><style>.edge>path:hover{stroke-width:8}</style>
<path fill="none" stroke="black" d="M316.9,-151.75C305.29,-142.1 290.99,-130.23 278.41,-119.78"/>
<polygon fill="#db2f2f" stroke="black" points="280.37,-116.85 270.44,-113.15 275.89,-122.23 280.37,-116.85"/>
</g>
<!-- datastructures_trees -->
<g id="node8" class="node">
<title>datastructures_trees</title><style>.edge>path:hover{stroke-width:8}</style>
<ellipse fill="#c04040" stroke="black" cx="431.64" cy="-93.21" rx="63.78" ry="21.43"/>
<text text-anchor="middle" x="431.64" y="-96.21" font-family="Helvetica,sans-Serif" font-size="10.00" fill="#ffffff">datastructures.</text>
<text text-anchor="middle" x="431.64" y="-85.21" font-family="Helvetica,sans-Serif" font-size="10.00" fill="#ffffff">trees</text>
</g>
<!-- datastructures_linear&#45;&gt;datastructures_trees -->
<g id="edge7" class="edge">
<title>datastructures_linear&#45;&gt;datastructures_trees</title><style>.edge>path:hover{stroke-width:8}</style>
<path fill="none" stroke="black" d="M362.38,-151.75C373.99,-142.1 388.29,-130.23 400.87,-119.78"/>
<polygon fill="#db2f2f" stroke="black" points="403.39,-122.23 408.84,-113.15 398.91,-116.85 403.39,-122.23"/>
</g>
<!-- datastructures_my_functions -->
<g id="node5" class="node">
<title>datastructures_my_functions</title><style>.edge>path:hover{stroke-width:8}</style>
<ellipse fill="#ce3b3b" stroke="black" cx="109.64" cy="-250.07" rx="63.78" ry="21.43"/>
<text text-anchor="middle" x="109.64" y="-253.07" font-family="Helvetica,sans-Serif" font-size="10.00" fill="#ffffff">datastructures.</text>
<text text-anchor="middle" x="109.64" y="-242.07" font-family="Helvetica,sans-Serif" font-size="10.00" fill="#ffffff">my_functions</text>
</g>
<!-- datastructures_my_functions&#45;&gt;datastructures_heap -->
<g id="edge8" class="edge">
<title>datastructures_my_functions&#45;&gt;datastructures_heap</title><style>.edge>path:hover{stroke-width:8}</style>
<path fill="none" stroke="black" d="M121.73,-228.99C126.8,-220.56 132.79,-210.6 138.32,-201.42"/>
<polygon fill="#ce3b3b" stroke="black" points="141.48,-202.96 143.63,-192.59 135.48,-199.35 141.48,-202.96"/>
</g>
<!-- datastructures_my_functions&#45;&gt;datastructures_sorts -->
<g id="edge9" class="edge">
<title>datastructures_my_functions&#45;&gt;datastructures_sorts</title><style>.edge>path:hover{stroke-width:8}</style>
<path fill="none" stroke="black" d="M98.46,-229.03C93.01,-218.53 86.75,-205.29 82.64,-192.85 75.27,-170.53 70.39,-144.38 67.43,-124.61"/>
<polygon fill="#ce3b3b" stroke="black" points="70.88,-124.03 66.01,-114.63 63.95,-125.02 70.88,-124.03"/>
</g>
<!-- datastructures_sorts&#45;&gt;datastructures -->
<g id="edge10" class="edge">
<title>datastructures_sorts&#45;&gt;datastructures</title><style>.edge>path:hover{stroke-width:8}</style>
<path fill="none" stroke="black" d="M108.26,-78.01C148.33,-65.26 206.91,-46.61 247.45,-33.7"/>
<polygon fill="#b83d3d" stroke="black" points="248.63,-37 257.09,-30.63 246.5,-30.33 248.63,-37"/>
</g>
<!-- datastructures_strings -->
<g id="node7" class="node">
<title>datastructures_strings</title><style>.edge>path:hover{stroke-width:8}</style>
<ellipse fill="#c24747" stroke="black" cx="576.64" cy="-93.21" rx="63.78" ry="21.43"/>
<text text-anchor="middle" x="576.64" y="-96.21" font-family="Helvetica,sans-Serif" font-size="10.00" fill="#ffffff">datastructures.</text>
<text text-anchor="middle" x="576.64" y="-85.21" font-family="Helvetica,sans-Serif" font-size="10.00" fill="#ffffff">strings</text>
</g>
<!-- datastructures_strings&#45;&gt;datastructures -->
<g id="edge11" class="edge">
<title>datastructures_strings&#45;&gt;datastructures</title><style>.edge>path:hover{stroke-width:8}</style>
<path fill="none" stroke="black" d="M529.44,-78.76C521.18,-76.47 512.67,-74.14 504.64,-72 450.06,-57.49 387.27,-41.85 344.46,-31.35"/>
<polygon fill="#c24747" stroke="black" points="345.12,-27.91 334.57,-28.93 343.45,-34.7 345.12,-27.91"/>
</g>
<!-- datastructures_trees&#45;&gt;datastructures -->
<g id="edge12" class="edge">
<title>datastructures_trees&#45;&gt;datastructures</title><style>.edge>path:hover{stroke-width:8}</style>
<path fill="none" stroke="black" d="M398.94,-74.86C378.25,-63.89 351.47,-49.68 330.1,-38.34"/>
<polygon fill="#c04040" stroke="black" points="331.47,-35.11 321,-33.52 328.19,-41.29 331.47,-35.11"/>
</g>
</g>
</svg>
