<?xml version="1.0" encoding="UTF-8" standalone="no"?>
<!DOCTYPE svg PUBLIC "-//W3C//DTD SVG 1.1//EN"
 "http://www.w3.org/Graphics/SVG/1.1/DTD/svg11.dtd">
<!-- Generated by graphviz version 2.43.0 (0)
 -->
<!-- Title: G Pages: 1 -->
<svg width="463pt" height="122pt"
 viewBox="0.00 0.00 463.37 122.43" xmlns="http://www.w3.org/2000/svg" xmlns:xlink="http://www.w3.org/1999/xlink">
<g id="graph0" class="graph" transform="scale(1 1) rotate(0) translate(4 118.43)">
<title>G</title><style>.edge>path:hover{stroke-width:8}</style>
<polygon fill="white" stroke="transparent" points="-4,4 -4,-118.43 459.37,-118.43 459.37,4 -4,4"/>
<!-- datastructures -->
<g id="node1" class="node">
<title>datastructures</title><style>.edge>path:hover{stroke-width:8}</style>
<ellipse fill="#bc2f2f" stroke="black" cx="208.64" cy="-18" rx="51.43" ry="18"/>
<text text-anchor="middle" x="208.64" y="-15.5" font-family="Helvetica,sans-Serif" font-size="10.00" fill="#ffffff">datastructures</text>
</g>
<!-- datastructures_binaryTrees -->
<g id="node2" class="node">
<title>datastructures_binaryTrees</title><style>.edge>path:hover{stroke-width:8}</style>
<ellipse fill="#c04040" stroke="black" cx="63.64" cy="-93.21" rx="63.78" ry="21.43"/>
<text text-anchor="middle" x="63.64" y="-96.21" font-family="Helvetica,sans-Serif" font-size="10.00" fill="#ffffff">datastructures.</text>
<text text-anchor="middle" x="63.64" y="-85.21" font-family="Helvetica,sans-Serif" font-size="10.00" fill="#ffffff">binaryTrees</text>
</g>
<!-- datastructures_binaryTrees&#45;&gt;datastructures -->
<g id="edge1" class="edge">
<title>datastructures_binaryTrees&#45;&gt;datastructures</title><style>.edge>path:hover{stroke-width:8}</style>
<path fill="none" stroke="black" d="M97.64,-75.05C119.85,-63.83 148.87,-49.18 171.66,-37.67"/>
<polygon fill="#c04040" stroke="black" points="173.35,-40.74 180.69,-33.11 170.19,-34.49 173.35,-40.74"/>
</g>
<!-- datastructures_graphs -->
<g id="node3" class="node">
<title>datastructures_graphs</title><style>.edge>path:hover{stroke-width:8}</style>
<ellipse fill="#c04040" stroke="black" cx="208.64" cy="-93.21" rx="63.78" ry="21.43"/>
<text text-anchor="middle" x="208.64" y="-96.21" font-family="Helvetica,sans-Serif" font-size="10.00" fill="#ffffff">datastructures.</text>
<text text-anchor="middle" x="208.64" y="-85.21" font-family="Helvetica,sans-Serif" font-size="10.00" fill="#ffffff">graphs</text>
</g>
<!-- datastructures_graphs&#45;&gt;datastructures -->
<g id="edge2" class="edge">
<title>datastructures_graphs&#45;&gt;datastructures</title><style>.edge>path:hover{stroke-width:8}</style>
<path fill="none" stroke="black" d="M208.64,-71.82C208.64,-63.97 208.64,-54.86 208.64,-46.45"/>
<polygon fill="#c04040" stroke="black" points="212.14,-46.31 208.64,-36.31 205.14,-46.31 212.14,-46.31"/>
</g>
<!-- datastructures_linearDataStructures -->
<g id="node4" class="node">
<title>datastructures_linearDataStructures</title><style>.edge>path:hover{stroke-width:8}</style>
<ellipse fill="#c24747" stroke="black" cx="372.64" cy="-93.21" rx="82.96" ry="21.43"/>
<text text-anchor="middle" x="372.64" y="-96.21" font-family="Helvetica,sans-Serif" font-size="10.00" fill="#ffffff">datastructures.</text>
<text text-anchor="middle" x="372.64" y="-85.21" font-family="Helvetica,sans-Serif" font-size="10.00" fill="#ffffff">linearDataStructures</text>
</g>
<!-- datastructures_linearDataStructures&#45;&gt;datastructures -->
<g id="edge3" class="edge">
<title>datastructures_linearDataStructures&#45;&gt;datastructures</title><style>.edge>path:hover{stroke-width:8}</style>
<path fill="none" stroke="black" d="M332.94,-74.49C307.3,-63.05 274.07,-48.21 248.41,-36.76"/>
<polygon fill="#c24747" stroke="black" points="249.54,-33.43 238.99,-32.55 246.69,-39.82 249.54,-33.43"/>
</g>
</g>
</svg>
