<?xml version="1.0" encoding="UTF-8" standalone="no"?>
<!DOCTYPE svg PUBLIC "-//W3C//DTD SVG 1.1//EN"
 "http://www.w3.org/Graphics/SVG/1.1/DTD/svg11.dtd">
<!-- Generated by graphviz version 2.43.0 (0)
 -->
<!-- Title: G Pages: 1 -->
<svg width="753pt" height="201pt"
 viewBox="0.00 0.00 753.37 200.85" xmlns="http://www.w3.org/2000/svg" xmlns:xlink="http://www.w3.org/1999/xlink">
<g id="graph0" class="graph" transform="scale(1 1) rotate(0) translate(4 196.85)">
<title>G</title><style>.edge>path:hover{stroke-width:8}</style>
<polygon fill="white" stroke="transparent" points="-4,4 -4,-196.85 749.37,-196.85 749.37,4 -4,4"/>
<!-- datastructures -->
<g id="node1" class="node">
<title>datastructures</title><style>.edge>path:hover{stroke-width:8}</style>
<ellipse fill="#b62020" stroke="black" cx="353.64" cy="-18" rx="51.43" ry="18"/>
<text text-anchor="middle" x="353.64" y="-15.5" font-family="Helvetica,sans-Serif" font-size="10.00" fill="#ffffff">datastructures</text>
</g>
<!-- datastructures_binaryTrees -->
<g id="node2" class="node">
<title>datastructures_binaryTrees</title><style>.edge>path:hover{stroke-width:8}</style>
<ellipse fill="#c04040" stroke="black" cx="63.64" cy="-93.21" rx="63.78" ry="21.43"/>
<text text-anchor="middle" x="63.64" y="-96.21" font-family="Helvetica,sans-Serif" font-size="10.00" fill="#ffffff">datastructures.</text>
<text text-anchor="middle" x="63.64" y="-85.21" font-family="Helvetica,sans-Serif" font-size="10.00" fill="#ffffff">binaryTrees</text>
</g>
<!-- datastructures_binaryTrees&#45;&gt;datastructures -->
<g id="edge1" class="edge">
<title>datastructures_binaryTrees&#45;&gt;datastructures</title><style>.edge>path:hover{stroke-width:8}</style>
<path fill="none" stroke="black" d="M110.44,-78.82C118.82,-76.49 127.48,-74.14 135.64,-72 192.44,-57.13 257.95,-41.39 302.2,-30.97"/>
<polygon fill="#c04040" stroke="black" points="303.21,-34.32 312.14,-28.63 301.61,-27.51 303.21,-34.32"/>
</g>
<!-- datastructures_graphs -->
<g id="node3" class="node">
<title>datastructures_graphs</title><style>.edge>path:hover{stroke-width:8}</style>
<ellipse fill="#c04040" stroke="black" cx="208.64" cy="-93.21" rx="63.78" ry="21.43"/>
<text text-anchor="middle" x="208.64" y="-96.21" font-family="Helvetica,sans-Serif" font-size="10.00" fill="#ffffff">datastructures.</text>
<text text-anchor="middle" x="208.64" y="-85.21" font-family="Helvetica,sans-Serif" font-size="10.00" fill="#ffffff">graphs</text>
</g>
<!-- datastructures_graphs&#45;&gt;datastructures -->
<g id="edge2" class="edge">
<title>datastructures_graphs&#45;&gt;datastructures</title><style>.edge>path:hover{stroke-width:8}</style>
<path fill="none" stroke="black" d="M242.64,-75.05C264.85,-63.83 293.87,-49.18 316.66,-37.67"/>
<polygon fill="#c04040" stroke="black" points="318.35,-40.74 325.69,-33.11 315.19,-34.49 318.35,-40.74"/>
</g>
<!-- datastructures_heap -->
<g id="node4" class="node">
<title>datastructures_heap</title><style>.edge>path:hover{stroke-width:8}</style>
<ellipse fill="#c04040" stroke="black" cx="353.64" cy="-93.21" rx="63.78" ry="21.43"/>
<text text-anchor="middle" x="353.64" y="-96.21" font-family="Helvetica,sans-Serif" font-size="10.00" fill="#ffffff">datastructures.</text>
<text text-anchor="middle" x="353.64" y="-85.21" font-family="Helvetica,sans-Serif" font-size="10.00" fill="#ffffff">heap</text>
</g>
<!-- datastructures_heap&#45;&gt;datastructures -->
<g id="edge3" class="edge">
<title>datastructures_heap&#45;&gt;datastructures</title><style>.edge>path:hover{stroke-width:8}</style>
<path fill="none" stroke="black" d="M353.64,-71.82C353.64,-63.97 353.64,-54.86 353.64,-46.45"/>
<polygon fill="#c04040" stroke="black" points="357.14,-46.31 353.64,-36.31 350.14,-46.31 357.14,-46.31"/>
</g>
<!-- datastructures_linearDataStructures -->
<g id="node5" class="node">
<title>datastructures_linearDataStructures</title><style>.edge>path:hover{stroke-width:8}</style>
<ellipse fill="#c24747" stroke="black" cx="662.64" cy="-93.21" rx="82.96" ry="21.43"/>
<text text-anchor="middle" x="662.64" y="-96.21" font-family="Helvetica,sans-Serif" font-size="10.00" fill="#ffffff">datastructures.</text>
<text text-anchor="middle" x="662.64" y="-85.21" font-family="Helvetica,sans-Serif" font-size="10.00" fill="#ffffff">linearDataStructures</text>
</g>
<!-- datastructures_linearDataStructures&#45;&gt;datastructures -->
<g id="edge4" class="edge">
<title>datastructures_linearDataStructures&#45;&gt;datastructures</title><style>.edge>path:hover{stroke-width:8}</style>
<path fill="none" stroke="black" d="M603.79,-78.27C546.26,-64.64 459.56,-44.1 404.81,-31.12"/>
<polygon fill="#c24747" stroke="black" points="405.51,-27.69 394.98,-28.79 403.9,-34.51 405.51,-27.69"/>
</g>
<!-- datastructures_my_functions -->
<g id="node6" class="node">
<title>datastructures_my_functions</title><style>.edge>path:hover{stroke-width:8}</style>
<ellipse fill="#ce3b3b" stroke="black" cx="425.64" cy="-171.64" rx="63.78" ry="21.43"/>
<text text-anchor="middle" x="425.64" y="-174.64" font-family="Helvetica,sans-Serif" font-size="10.00" fill="#ffffff">datastructures.</text>
<text text-anchor="middle" x="425.64" y="-163.64" font-family="Helvetica,sans-Serif" font-size="10.00" fill="#ffffff">my_functions</text>
</g>
<!-- datastructures_my_functions&#45;&gt;datastructures_heap -->
<g id="edge5" class="edge">
<title>datastructures_my_functions&#45;&gt;datastructures_heap</title><style>.edge>path:hover{stroke-width:8}</style>
<path fill="none" stroke="black" d="M407.1,-150.96C398.47,-141.79 388.07,-130.76 378.74,-120.86"/>
<polygon fill="#ce3b3b" stroke="black" points="381.27,-118.44 371.87,-113.56 376.18,-123.24 381.27,-118.44"/>
</g>
<!-- datastructures_sorts -->
<g id="node7" class="node">
<title>datastructures_sorts</title><style>.edge>path:hover{stroke-width:8}</style>
<ellipse fill="#b83d3d" stroke="black" cx="498.64" cy="-93.21" rx="63.78" ry="21.43"/>
<text text-anchor="middle" x="498.64" y="-96.21" font-family="Helvetica,sans-Serif" font-size="10.00" fill="#ffffff">datastructures.</text>
<text text-anchor="middle" x="498.64" y="-85.21" font-family="Helvetica,sans-Serif" font-size="10.00" fill="#ffffff">sorts</text>
</g>
<!-- datastructures_my_functions&#45;&gt;datastructures_sorts -->
<g id="edge6" class="edge">
<title>datastructures_my_functions&#45;&gt;datastructures_sorts</title><style>.edge>path:hover{stroke-width:8}</style>
<path fill="none" stroke="black" d="M444.44,-150.96C453.19,-141.79 463.74,-130.76 473.19,-120.86"/>
<polygon fill="#ce3b3b" stroke="black" points="475.78,-123.21 480.16,-113.56 470.72,-118.38 475.78,-123.21"/>
</g>
<!-- datastructures_sorts&#45;&gt;datastructures -->
<g id="edge7" class="edge">
<title>datastructures_sorts&#45;&gt;datastructures</title><style>.edge>path:hover{stroke-width:8}</style>
<path fill="none" stroke="black" d="M464.64,-75.05C442.43,-63.83 413.41,-49.18 390.62,-37.67"/>
<polygon fill="#b83d3d" stroke="black" points="392.09,-34.49 381.58,-33.11 388.93,-40.74 392.09,-34.49"/>
</g>
</g>
</svg>
