<?xml version="1.0" encoding="UTF-8" standalone="no"?>
<!DOCTYPE svg PUBLIC "-//W3C//DTD SVG 1.1//EN"
 "http://www.w3.org/Graphics/SVG/1.1/DTD/svg11.dtd">
<!-- Generated by graphviz version 2.43.0 (0)
 -->
<!-- Title: G Pages: 1 -->
<svg width="556pt" height="467pt"
 viewBox="0.00 0.00 556.28 467.24" xmlns="http://www.w3.org/2000/svg" xmlns:xlink="http://www.w3.org/1999/xlink">
<g id="graph0" class="graph" transform="scale(1 1) rotate(0) translate(4 463.24)">
<title>G</title><style>.edge>path:hover{stroke-width:8}</style>
<polygon fill="white" stroke="transparent" points="-4,4 -4,-463.24 552.28,-463.24 552.28,4 -4,4"/>
<!-- datastructures -->
<g id="node1" class="node">
<title>datastructures</title><style>.edge>path:hover{stroke-width:8}</style>
<ellipse fill="#813737" stroke="black" cx="319.64" cy="-18" rx="51.43" ry="18"/>
<text text-anchor="middle" x="319.64" y="-15.5" font-family="Helvetica,sans-Serif" font-size="10.00" fill="#ffffff">datastructures</text>
</g>
<!-- datastructures_graphs -->
<g id="node2" class="node">
<title>datastructures_graphs</title><style>.edge>path:hover{stroke-width:8}</style>
<ellipse fill="#b83d3d" stroke="black" cx="392.64" cy="-273.4" rx="63.78" ry="21.43"/>
<text text-anchor="middle" x="392.64" y="-276.4" font-family="Helvetica,sans-Serif" font-size="10.00" fill="#ffffff">datastructures.</text>
<text text-anchor="middle" x="392.64" y="-265.4" font-family="Helvetica,sans-Serif" font-size="10.00" fill="#ffffff">graphs</text>
</g>
<!-- datastructures_graphs&#45;&gt;datastructures -->
<g id="edge1" class="edge">
<title>datastructures_graphs&#45;&gt;datastructures</title><style>.edge>path:hover{stroke-width:8}</style>
<path fill="none" stroke="black" d="M423.44,-254.81C447.13,-238.98 477.05,-213.2 484.64,-180.42"/>
<path fill="none" stroke="black" d="M484.64,-178.42C493.08,-141.96 501.36,-127.7 484.64,-94.21"/>
</g>
<!-- datastructures_heap -->
<g id="node3" class="node">
<title>datastructures_heap</title><style>.edge>path:hover{stroke-width:8}</style>
<ellipse fill="#e61919" stroke="black" cx="155.64" cy="-359.61" rx="63.78" ry="21.43"/>
<text text-anchor="middle" x="155.64" y="-362.61" font-family="Helvetica,sans-Serif" font-size="10.00" fill="#ffffff">datastructures.</text>
<text text-anchor="middle" x="155.64" y="-351.61" font-family="Helvetica,sans-Serif" font-size="10.00" fill="#ffffff">heap</text>
</g>
<!-- datastructures_heap&#45;&gt;datastructures -->
<g id="edge2" class="edge">
<title>datastructures_heap&#45;&gt;datastructures</title><style>.edge>path:hover{stroke-width:8}</style>
<path fill="none" stroke="black" d="M153.09,-338.24C151.54,-321 150.69,-295.76 155.64,-274.4"/>
<path fill="none" stroke="black" d="M155.64,-272.4C164.86,-232.57 146.42,-220.24 155.64,-180.42"/>
</g>
<!-- datastructures_heap&#45;&gt;datastructures_graphs -->
<g id="edge3" class="edge">
<title>datastructures_heap&#45;&gt;datastructures_graphs</title><style>.edge>path:hover{stroke-width:8}</style>
<path fill="none" stroke="black" d="M199.59,-344.2C232.93,-333.13 279.84,-317.27 320.64,-302.39 328.08,-299.68 335.92,-296.73 343.58,-293.79"/>
<polygon fill="#e61919" stroke="black" points="345.07,-296.97 353.14,-290.1 342.55,-290.44 345.07,-296.97"/>
</g>
<!-- datastructures_sorts -->
<g id="node6" class="node">
<title>datastructures_sorts</title><style>.edge>path:hover{stroke-width:8}</style>
<ellipse fill="#b83d3d" stroke="black" cx="63.64" cy="-273.4" rx="63.78" ry="21.43"/>
<text text-anchor="middle" x="63.64" y="-276.4" font-family="Helvetica,sans-Serif" font-size="10.00" fill="#ffffff">datastructures.</text>
<text text-anchor="middle" x="63.64" y="-265.4" font-family="Helvetica,sans-Serif" font-size="10.00" fill="#ffffff">sorts</text>
</g>
<!-- datastructures_heap&#45;&gt;datastructures_sorts -->
<g id="edge4" class="edge">
<title>datastructures_heap&#45;&gt;datastructures_sorts</title><style>.edge>path:hover{stroke-width:8}</style>
<path fill="none" stroke="black" d="M134.76,-339.5C122.27,-328.06 106.2,-313.35 92.5,-300.82"/>
<polygon fill="#e61919" stroke="black" points="94.49,-297.89 84.75,-293.72 89.77,-303.06 94.49,-297.89"/>
</g>
<!-- datastructures_trees_trees -->
<g id="node10" class="node">
<title>datastructures_trees_trees</title><style>.edge>path:hover{stroke-width:8}</style>
<ellipse fill="#c43131" stroke="black" cx="247.64" cy="-179.42" rx="63.78" ry="28.98"/>
<text text-anchor="middle" x="247.64" y="-187.92" font-family="Helvetica,sans-Serif" font-size="10.00" fill="#ffffff">datastructures.</text>
<text text-anchor="middle" x="247.64" y="-176.92" font-family="Helvetica,sans-Serif" font-size="10.00" fill="#ffffff">trees.</text>
<text text-anchor="middle" x="247.64" y="-165.92" font-family="Helvetica,sans-Serif" font-size="10.00" fill="#ffffff">trees</text>
</g>
<!-- datastructures_heap&#45;&gt;datastructures_trees_trees -->
<g id="edge5" class="edge">
<title>datastructures_heap&#45;&gt;datastructures_trees_trees</title><style>.edge>path:hover{stroke-width:8}</style>
<path fill="none" stroke="black" d="M155.64,-272.4C161.64,-246.49 181.59,-224.95 201.39,-209.24"/>
<polygon fill="#e61919" stroke="black" points="203.66,-211.91 209.52,-203.09 199.44,-206.33 203.66,-211.91"/>
</g>
<!-- datastructures_linear -->
<g id="node4" class="node">
<title>datastructures_linear</title><style>.edge>path:hover{stroke-width:8}</style>
<ellipse fill="#db2f2f" stroke="black" cx="484.64" cy="-438.03" rx="63.78" ry="21.43"/>
<text text-anchor="middle" x="484.64" y="-441.03" font-family="Helvetica,sans-Serif" font-size="10.00" fill="#ffffff">datastructures.</text>
<text text-anchor="middle" x="484.64" y="-430.03" font-family="Helvetica,sans-Serif" font-size="10.00" fill="#ffffff">linear</text>
</g>
<!-- datastructures_linear&#45;&gt;datastructures -->
<g id="edge6" class="edge">
<title>datastructures_linear&#45;&gt;datastructures</title><style>.edge>path:hover{stroke-width:8}</style>
<path fill="none" stroke="black" d="M484.64,-358.61C467.33,-322.99 475.71,-218.99 484.64,-180.42"/>
</g>
<!-- datastructures_linear&#45;&gt;datastructures_graphs -->
<g id="edge7" class="edge">
<title>datastructures_linear&#45;&gt;datastructures_graphs</title><style>.edge>path:hover{stroke-width:8}</style>
<path fill="none" stroke="black" d="M484.64,-358.61C472.72,-334.07 450.24,-313.28 430.49,-298.51"/>
<polygon fill="#db2f2f" stroke="black" points="432.39,-295.56 422.23,-292.55 428.3,-301.24 432.39,-295.56"/>
</g>
<!-- datastructures_trees_nodes -->
<g id="node9" class="node">
<title>datastructures_trees_nodes</title><style>.edge>path:hover{stroke-width:8}</style>
<ellipse fill="#d92626" stroke="black" cx="247.64" cy="-273.4" rx="63.78" ry="28.98"/>
<text text-anchor="middle" x="247.64" y="-281.9" font-family="Helvetica,sans-Serif" font-size="10.00" fill="#ffffff">datastructures.</text>
<text text-anchor="middle" x="247.64" y="-270.9" font-family="Helvetica,sans-Serif" font-size="10.00" fill="#ffffff">trees.</text>
<text text-anchor="middle" x="247.64" y="-259.9" font-family="Helvetica,sans-Serif" font-size="10.00" fill="#ffffff">nodes</text>
</g>
<!-- datastructures_linear&#45;&gt;datastructures_trees_nodes -->
<g id="edge8" class="edge">
<title>datastructures_linear&#45;&gt;datastructures_trees_nodes</title><style>.edge>path:hover{stroke-width:8}</style>
<path fill="none" stroke="black" d="M489.28,-416.81C491.9,-400.74 493.16,-378.15 484.64,-360.61"/>
<path fill="none" stroke="black" d="M484.64,-358.61C450.78,-288.92 392.43,-328.93 319.64,-302.39 314.6,-300.55 309.38,-298.61 304.15,-296.63"/>
<polygon fill="#db2f2f" stroke="black" points="305.37,-293.35 294.78,-293.06 302.88,-299.89 305.37,-293.35"/>
</g>
<!-- datastructures_my_functions -->
<g id="node5" class="node">
<title>datastructures_my_functions</title><style>.edge>path:hover{stroke-width:8}</style>
<ellipse fill="#ce3b3b" stroke="black" cx="109.64" cy="-438.03" rx="63.78" ry="21.43"/>
<text text-anchor="middle" x="109.64" y="-441.03" font-family="Helvetica,sans-Serif" font-size="10.00" fill="#ffffff">datastructures.</text>
<text text-anchor="middle" x="109.64" y="-430.03" font-family="Helvetica,sans-Serif" font-size="10.00" fill="#ffffff">my_functions</text>
</g>
<!-- datastructures_my_functions&#45;&gt;datastructures_heap -->
<g id="edge9" class="edge">
<title>datastructures_my_functions&#45;&gt;datastructures_heap</title><style>.edge>path:hover{stroke-width:8}</style>
<path fill="none" stroke="black" d="M121.73,-416.95C126.8,-408.53 132.79,-398.57 138.32,-389.39"/>
<polygon fill="#ce3b3b" stroke="black" points="141.48,-390.92 143.63,-380.55 135.48,-387.31 141.48,-390.92"/>
</g>
<!-- datastructures_my_functions&#45;&gt;datastructures_sorts -->
<g id="edge10" class="edge">
<title>datastructures_my_functions&#45;&gt;datastructures_sorts</title><style>.edge>path:hover{stroke-width:8}</style>
<path fill="none" stroke="black" d="M98.39,-417.02C92.92,-406.53 86.66,-393.29 82.64,-380.82 74.6,-355.91 69.68,-326.57 66.87,-305.01"/>
<polygon fill="#ce3b3b" stroke="black" points="70.31,-304.3 65.62,-294.8 63.36,-305.15 70.31,-304.3"/>
</g>
<!-- datastructures_sorts&#45;&gt;datastructures -->
<g id="edge11" class="edge">
<title>datastructures_sorts&#45;&gt;datastructures</title><style>.edge>path:hover{stroke-width:8}</style>
<path fill="none" stroke="black" d="M94.44,-254.81C118.13,-238.98 148.05,-213.2 155.64,-180.42"/>
<path fill="none" stroke="black" d="M155.64,-178.42C164.08,-141.96 143.68,-129.67 155.64,-94.21"/>
<path fill="none" stroke="black" d="M155.64,-92.21C169.86,-50.04 219.21,-32.14 260.09,-24.55"/>
<polygon fill="#b83d3d" stroke="black" points="260.72,-27.99 270,-22.87 259.56,-21.09 260.72,-27.99"/>
</g>
<!-- datastructures_strings -->
<g id="node7" class="node">
<title>datastructures_strings</title><style>.edge>path:hover{stroke-width:8}</style>
<ellipse fill="#c24747" stroke="black" cx="392.64" cy="-93.21" rx="63.78" ry="21.43"/>
<text text-anchor="middle" x="392.64" y="-96.21" font-family="Helvetica,sans-Serif" font-size="10.00" fill="#ffffff">datastructures.</text>
<text text-anchor="middle" x="392.64" y="-85.21" font-family="Helvetica,sans-Serif" font-size="10.00" fill="#ffffff">strings</text>
</g>
<!-- datastructures_strings&#45;&gt;datastructures -->
<g id="edge12" class="edge">
<title>datastructures_strings&#45;&gt;datastructures</title><style>.edge>path:hover{stroke-width:8}</style>
<path fill="none" stroke="black" d="M373.46,-72.98C364.17,-63.66 352.93,-52.39 343.13,-42.56"/>
<polygon fill="#c24747" stroke="black" points="345.51,-39.99 335.97,-35.38 340.55,-44.93 345.51,-39.99"/>
</g>
<!-- datastructures_trees -->
<g id="node8" class="node">
<title>datastructures_trees</title><style>.edge>path:hover{stroke-width:8}</style>
<ellipse fill="#b83d3d" stroke="black" cx="247.64" cy="-93.21" rx="63.78" ry="21.43"/>
<text text-anchor="middle" x="247.64" y="-96.21" font-family="Helvetica,sans-Serif" font-size="10.00" fill="#ffffff">datastructures.</text>
<text text-anchor="middle" x="247.64" y="-85.21" font-family="Helvetica,sans-Serif" font-size="10.00" fill="#ffffff">trees</text>
</g>
<!-- datastructures_trees&#45;&gt;datastructures -->
<g id="edge13" class="edge">
<title>datastructures_trees&#45;&gt;datastructures</title><style>.edge>path:hover{stroke-width:8}</style>
<path fill="none" stroke="black" d="M266.93,-72.59C276.01,-63.37 286.9,-52.3 296.42,-42.61"/>
<polygon fill="#b83d3d" stroke="black" points="299.18,-44.8 303.7,-35.21 294.19,-39.89 299.18,-44.8"/>
</g>
<!-- datastructures_trees_nodes&#45;&gt;datastructures -->
<g id="edge14" class="edge">
<title>datastructures_trees_nodes&#45;&gt;datastructures</title><style>.edge>path:hover{stroke-width:8}</style>
<path fill="none" stroke="black" d="M446.64,-178.42C454.36,-138.09 502.98,-130.95 484.64,-94.21"/>
<path fill="none" stroke="black" d="M484.64,-92.21C464.98,-52.83 417.23,-34.63 378.12,-26.21"/>
<polygon fill="#d92626" stroke="black" points="378.36,-22.69 367.88,-24.18 377,-29.56 378.36,-22.69"/>
</g>
<!-- datastructures_trees_nodes&#45;&gt;datastructures_trees -->
<g id="edge15" class="edge">
<title>datastructures_trees_nodes&#45;&gt;datastructures_trees</title><style>.edge>path:hover{stroke-width:8}</style>
<path fill="none" stroke="black" d="M293.83,-253.27C352.13,-228.8 445.07,-188.62 446.64,-180.42"/>
<path fill="none" stroke="black" d="M446.64,-178.42C449.61,-162.89 362.34,-131.29 302.41,-111.52"/>
<polygon fill="#d92626" stroke="black" points="303.27,-108.12 292.68,-108.33 301.09,-114.77 303.27,-108.12"/>
</g>
<!-- datastructures_trees_nodes&#45;&gt;datastructures_trees_trees -->
<g id="edge16" class="edge">
<title>datastructures_trees_nodes&#45;&gt;datastructures_trees_trees</title><style>.edge>path:hover{stroke-width:8}</style>
<path fill="none" stroke="black" d="M247.64,-244.3C247.64,-236.26 247.64,-227.36 247.64,-218.82"/>
<polygon fill="#d92626" stroke="black" points="251.14,-218.66 247.64,-208.66 244.14,-218.66 251.14,-218.66"/>
</g>
<!-- datastructures_trees_trees&#45;&gt;datastructures -->
<g id="edge17" class="edge">
<title>datastructures_trees_trees&#45;&gt;datastructures</title><style>.edge>path:hover{stroke-width:8}</style>
<path fill="none" stroke="black" d="M201.23,-159.44C173.77,-144.94 146.06,-122.63 155.64,-94.21"/>
</g>
<!-- datastructures_trees_trees&#45;&gt;datastructures_trees -->
<g id="edge18" class="edge">
<title>datastructures_trees_trees&#45;&gt;datastructures_trees</title><style>.edge>path:hover{stroke-width:8}</style>
<path fill="none" stroke="black" d="M247.64,-150.38C247.64,-142.17 247.64,-133.16 247.64,-124.8"/>
<polygon fill="#c43131" stroke="black" points="251.14,-124.67 247.64,-114.67 244.14,-124.67 251.14,-124.67"/>
</g>
</g>
</svg>
