<?xml version="1.0" encoding="UTF-8" standalone="no"?>
<!DOCTYPE svg PUBLIC "-//W3C//DTD SVG 1.1//EN"
 "http://www.w3.org/Graphics/SVG/1.1/DTD/svg11.dtd">
<!-- Generated by graphviz version 2.43.0 (0)
 -->
<!-- Title: G Pages: 1 -->
<svg width="626pt" height="279pt"
 viewBox="0.00 0.00 626.47 279.28" xmlns="http://www.w3.org/2000/svg" xmlns:xlink="http://www.w3.org/1999/xlink">
<g id="graph0" class="graph" transform="scale(1 1) rotate(0) translate(4 275.28)">
<title>G</title><style>.edge>path:hover{stroke-width:8}</style>
<polygon fill="white" stroke="transparent" points="-4,4 -4,-275.28 622.47,-275.28 622.47,4 -4,4"/>
<!-- datastructures -->
<g id="node1" class="node">
<title>datastructures</title><style>.edge>path:hover{stroke-width:8}</style>
<ellipse fill="#8f3d3d" stroke="black" cx="271.83" cy="-18" rx="51.43" ry="18"/>
<text text-anchor="middle" x="271.83" y="-15.5" font-family="Helvetica,sans-Serif" font-size="10.00" fill="#ffffff">datastructures</text>
</g>
<!-- datastructures_graphs -->
<g id="node2" class="node">
<title>datastructures_graphs</title><style>.edge>path:hover{stroke-width:8}</style>
<ellipse fill="#c04040" stroke="black" cx="80.83" cy="-93.21" rx="63.78" ry="21.43"/>
<text text-anchor="middle" x="80.83" y="-96.21" font-family="Helvetica,sans-Serif" font-size="10.00" fill="#ffffff">datastructures.</text>
<text text-anchor="middle" x="80.83" y="-85.21" font-family="Helvetica,sans-Serif" font-size="10.00" fill="#ffffff">graphs</text>
</g>
<!-- datastructures_graphs&#45;&gt;datastructures -->
<g id="edge1" class="edge">
<title>datastructures_graphs&#45;&gt;datastructures</title><style>.edge>path:hover{stroke-width:8}</style>
<path fill="none" stroke="black" d="M121.34,-76.69C152.89,-64.59 196.6,-47.83 228.79,-35.5"/>
<polygon fill="#c04040" stroke="black" points="230.3,-38.67 238.38,-31.82 227.79,-32.13 230.3,-38.67"/>
</g>
<!-- datastructures_heap -->
<g id="node3" class="node">
<title>datastructures_heap</title><style>.edge>path:hover{stroke-width:8}</style>
<ellipse fill="#cc3333" stroke="black" cx="317.83" cy="-171.64" rx="63.78" ry="21.43"/>
<text text-anchor="middle" x="317.83" y="-174.64" font-family="Helvetica,sans-Serif" font-size="10.00" fill="#ffffff">datastructures.</text>
<text text-anchor="middle" x="317.83" y="-163.64" font-family="Helvetica,sans-Serif" font-size="10.00" fill="#ffffff">heap</text>
</g>
<!-- datastructures_heap&#45;&gt;datastructures -->
<g id="edge2" class="edge">
<title>datastructures_heap&#45;&gt;datastructures</title><style>.edge>path:hover{stroke-width:8}</style>
<path fill="none" stroke="black" d="M315.59,-150.18C312.98,-129.93 307.83,-98.23 298.83,-72 295.71,-62.92 291.29,-53.44 286.94,-45.05"/>
<polygon fill="#cc3333" stroke="black" points="289.94,-43.26 282.11,-36.12 283.79,-46.59 289.94,-43.26"/>
</g>
<!-- datastructures_sorts -->
<g id="node6" class="node">
<title>datastructures_sorts</title><style>.edge>path:hover{stroke-width:8}</style>
<ellipse fill="#b83d3d" stroke="black" cx="409.83" cy="-93.21" rx="63.78" ry="21.43"/>
<text text-anchor="middle" x="409.83" y="-96.21" font-family="Helvetica,sans-Serif" font-size="10.00" fill="#ffffff">datastructures.</text>
<text text-anchor="middle" x="409.83" y="-85.21" font-family="Helvetica,sans-Serif" font-size="10.00" fill="#ffffff">sorts</text>
</g>
<!-- datastructures_heap&#45;&gt;datastructures_sorts -->
<g id="edge3" class="edge">
<title>datastructures_heap&#45;&gt;datastructures_sorts</title><style>.edge>path:hover{stroke-width:8}</style>
<path fill="none" stroke="black" d="M340.57,-151.75C352.18,-142.1 366.48,-130.23 379.06,-119.78"/>
<polygon fill="#cc3333" stroke="black" points="381.58,-122.23 387.03,-113.15 377.1,-116.85 381.58,-122.23"/>
</g>
<!-- datastructures_linear -->
<g id="node4" class="node">
<title>datastructures_linear</title><style>.edge>path:hover{stroke-width:8}</style>
<ellipse fill="#db2f2f" stroke="black" cx="80.83" cy="-171.64" rx="63.78" ry="21.43"/>
<text text-anchor="middle" x="80.83" y="-174.64" font-family="Helvetica,sans-Serif" font-size="10.00" fill="#ffffff">datastructures.</text>
<text text-anchor="middle" x="80.83" y="-163.64" font-family="Helvetica,sans-Serif" font-size="10.00" fill="#ffffff">linear</text>
</g>
<!-- datastructures_linear&#45;&gt;datastructures -->
<g id="edge4" class="edge">
<title>datastructures_linear&#45;&gt;datastructures</title><style>.edge>path:hover{stroke-width:8}</style>
<path fill="none" stroke="black" d="M46.56,-153.53C31.78,-144.18 16.02,-131.07 7.83,-114.43 -0.5,-97.51 -4.12,-86.59 7.83,-72 33.07,-41.19 141.64,-27.92 211.45,-22.48"/>
<polygon fill="#db2f2f" stroke="black" points="211.74,-25.97 221.45,-21.74 211.22,-18.99 211.74,-25.97"/>
</g>
<!-- datastructures_linear&#45;&gt;datastructures_graphs -->
<g id="edge5" class="edge">
<title>datastructures_linear&#45;&gt;datastructures_graphs</title><style>.edge>path:hover{stroke-width:8}</style>
<path fill="none" stroke="black" d="M80.83,-150.16C80.83,-142.3 80.83,-133.16 80.83,-124.57"/>
<polygon fill="#db2f2f" stroke="black" points="84.33,-124.49 80.83,-114.49 77.33,-124.49 84.33,-124.49"/>
</g>
<!-- datastructures_trees -->
<g id="node8" class="node">
<title>datastructures_trees</title><style>.edge>path:hover{stroke-width:8}</style>
<ellipse fill="#c04040" stroke="black" cx="225.83" cy="-93.21" rx="63.78" ry="21.43"/>
<text text-anchor="middle" x="225.83" y="-96.21" font-family="Helvetica,sans-Serif" font-size="10.00" fill="#ffffff">datastructures.</text>
<text text-anchor="middle" x="225.83" y="-85.21" font-family="Helvetica,sans-Serif" font-size="10.00" fill="#ffffff">trees</text>
</g>
<!-- datastructures_linear&#45;&gt;datastructures_trees -->
<g id="edge6" class="edge">
<title>datastructures_linear&#45;&gt;datastructures_trees</title><style>.edge>path:hover{stroke-width:8}</style>
<path fill="none" stroke="black" d="M113.73,-153.3C134.59,-142.3 161.75,-127.99 184.12,-116.2"/>
<polygon fill="#db2f2f" stroke="black" points="185.84,-119.25 193.06,-111.49 182.58,-113.05 185.84,-119.25"/>
</g>
<!-- datastructures_my_functions -->
<g id="node5" class="node">
<title>datastructures_my_functions</title><style>.edge>path:hover{stroke-width:8}</style>
<ellipse fill="#ce3b3b" stroke="black" cx="363.83" cy="-250.07" rx="63.78" ry="21.43"/>
<text text-anchor="middle" x="363.83" y="-253.07" font-family="Helvetica,sans-Serif" font-size="10.00" fill="#ffffff">datastructures.</text>
<text text-anchor="middle" x="363.83" y="-242.07" font-family="Helvetica,sans-Serif" font-size="10.00" fill="#ffffff">my_functions</text>
</g>
<!-- datastructures_my_functions&#45;&gt;datastructures_heap -->
<g id="edge7" class="edge">
<title>datastructures_my_functions&#45;&gt;datastructures_heap</title><style>.edge>path:hover{stroke-width:8}</style>
<path fill="none" stroke="black" d="M351.74,-228.99C346.67,-220.56 340.68,-210.6 335.15,-201.42"/>
<polygon fill="#ce3b3b" stroke="black" points="337.99,-199.35 329.83,-192.59 331.99,-202.96 337.99,-199.35"/>
</g>
<!-- datastructures_my_functions&#45;&gt;datastructures_sorts -->
<g id="edge8" class="edge">
<title>datastructures_my_functions&#45;&gt;datastructures_sorts</title><style>.edge>path:hover{stroke-width:8}</style>
<path fill="none" stroke="black" d="M375.01,-229.03C380.46,-218.53 386.72,-205.29 390.83,-192.85 398.2,-170.53 403.08,-144.38 406.04,-124.61"/>
<polygon fill="#ce3b3b" stroke="black" points="409.52,-125.02 407.46,-114.63 402.59,-124.03 409.52,-125.02"/>
</g>
<!-- datastructures_sorts&#45;&gt;datastructures -->
<g id="edge9" class="edge">
<title>datastructures_sorts&#45;&gt;datastructures</title><style>.edge>path:hover{stroke-width:8}</style>
<path fill="none" stroke="black" d="M377.13,-74.86C356.44,-63.89 329.66,-49.68 308.29,-38.34"/>
<polygon fill="#b83d3d" stroke="black" points="309.66,-35.11 299.19,-33.52 306.38,-41.29 309.66,-35.11"/>
</g>
<!-- datastructures_strings -->
<g id="node7" class="node">
<title>datastructures_strings</title><style>.edge>path:hover{stroke-width:8}</style>
<ellipse fill="#c24747" stroke="black" cx="554.83" cy="-93.21" rx="63.78" ry="21.43"/>
<text text-anchor="middle" x="554.83" y="-96.21" font-family="Helvetica,sans-Serif" font-size="10.00" fill="#ffffff">datastructures.</text>
<text text-anchor="middle" x="554.83" y="-85.21" font-family="Helvetica,sans-Serif" font-size="10.00" fill="#ffffff">strings</text>
</g>
<!-- datastructures_strings&#45;&gt;datastructures -->
<g id="edge10" class="edge">
<title>datastructures_strings&#45;&gt;datastructures</title><style>.edge>path:hover{stroke-width:8}</style>
<path fill="none" stroke="black" d="M507.63,-78.76C499.37,-76.47 490.86,-74.14 482.83,-72 428.25,-57.49 365.46,-41.85 322.65,-31.35"/>
<polygon fill="#c24747" stroke="black" points="323.31,-27.91 312.76,-28.93 321.64,-34.7 323.31,-27.91"/>
</g>
<!-- datastructures_trees&#45;&gt;datastructures -->
<g id="edge11" class="edge">
<title>datastructures_trees&#45;&gt;datastructures</title><style>.edge>path:hover{stroke-width:8}</style>
<path fill="none" stroke="black" d="M238.4,-72.21C243.75,-63.7 250.05,-53.67 255.73,-44.63"/>
<polygon fill="#c04040" stroke="black" points="258.79,-46.33 261.15,-36 252.86,-42.61 258.79,-46.33"/>
</g>
</g>
</svg>
