<?xml version="1.0" encoding="UTF-8" standalone="no"?>
<!DOCTYPE svg PUBLIC "-//W3C//DTD SVG 1.1//EN"
 "http://www.w3.org/Graphics/SVG/1.1/DTD/svg11.dtd">
<!-- Generated by graphviz version 2.43.0 (0)
 -->
<!-- Title: G Pages: 1 -->
<svg width="725pt" height="426pt"
 viewBox="0.00 0.00 725.28 425.82" xmlns="http://www.w3.org/2000/svg" xmlns:xlink="http://www.w3.org/1999/xlink">
<g id="graph0" class="graph" transform="scale(1 1) rotate(0) translate(4 421.82)">
<title>G</title><style>.edge>path:hover{stroke-width:8}</style>
<polygon fill="white" stroke="transparent" points="-4,4 -4,-421.82 721.28,-421.82 721.28,4 -4,4"/>
<!-- datastructures -->
<g id="node1" class="node">
<title>datastructures</title><style>.edge>path:hover{stroke-width:8}</style>
<ellipse fill="#813737" stroke="black" cx="339.64" cy="-18" rx="51.43" ry="18"/>
<text text-anchor="middle" x="339.64" y="-15.5" font-family="Helvetica,sans-Serif" font-size="10.00" fill="#ffffff">datastructures</text>
</g>
<!-- datastructures_graphs -->
<g id="node2" class="node">
<title>datastructures_graphs</title><style>.edge>path:hover{stroke-width:8}</style>
<ellipse fill="#b83d3d" stroke="black" cx="247.64" cy="-93.21" rx="63.78" ry="21.43"/>
<text text-anchor="middle" x="247.64" y="-96.21" font-family="Helvetica,sans-Serif" font-size="10.00" fill="#ffffff">datastructures.</text>
<text text-anchor="middle" x="247.64" y="-85.21" font-family="Helvetica,sans-Serif" font-size="10.00" fill="#ffffff">graphs</text>
</g>
<!-- datastructures_graphs&#45;&gt;datastructures -->
<g id="edge1" class="edge">
<title>datastructures_graphs&#45;&gt;datastructures</title><style>.edge>path:hover{stroke-width:8}</style>
<path fill="none" stroke="black" d="M271.33,-73.36C283.65,-63.56 298.78,-51.52 311.67,-41.26"/>
<polygon fill="#b83d3d" stroke="black" points="314.11,-43.79 319.76,-34.82 309.76,-38.31 314.11,-43.79"/>
</g>
<!-- datastructures_heap -->
<g id="node3" class="node">
<title>datastructures_heap</title><style>.edge>path:hover{stroke-width:8}</style>
<ellipse fill="#d92626" stroke="black" cx="155.64" cy="-179.42" rx="63.78" ry="21.43"/>
<text text-anchor="middle" x="155.64" y="-182.42" font-family="Helvetica,sans-Serif" font-size="10.00" fill="#ffffff">datastructures.</text>
<text text-anchor="middle" x="155.64" y="-171.42" font-family="Helvetica,sans-Serif" font-size="10.00" fill="#ffffff">heap</text>
</g>
<!-- datastructures_heap&#45;&gt;datastructures -->
<g id="edge2" class="edge">
<title>datastructures_heap&#45;&gt;datastructures</title><style>.edge>path:hover{stroke-width:8}</style>
<path fill="none" stroke="black" d="M153.5,-158.17C152.17,-134.61 153.77,-95.88 174.64,-72 200.68,-42.21 243.51,-29.04 279.01,-23.27"/>
<polygon fill="#d92626" stroke="black" points="279.9,-26.68 289.29,-21.78 278.89,-19.76 279.9,-26.68"/>
</g>
<!-- datastructures_heap&#45;&gt;datastructures_graphs -->
<g id="edge3" class="edge">
<title>datastructures_heap&#45;&gt;datastructures_graphs</title><style>.edge>path:hover{stroke-width:8}</style>
<path fill="none" stroke="black" d="M176.52,-159.31C189.01,-147.87 205.08,-133.17 218.78,-120.63"/>
<polygon fill="#d92626" stroke="black" points="221.51,-122.87 226.53,-113.54 216.79,-117.71 221.51,-122.87"/>
</g>
<!-- datastructures_sorts -->
<g id="node6" class="node">
<title>datastructures_sorts</title><style>.edge>path:hover{stroke-width:8}</style>
<ellipse fill="#b83d3d" stroke="black" cx="63.64" cy="-93.21" rx="63.78" ry="21.43"/>
<text text-anchor="middle" x="63.64" y="-96.21" font-family="Helvetica,sans-Serif" font-size="10.00" fill="#ffffff">datastructures.</text>
<text text-anchor="middle" x="63.64" y="-85.21" font-family="Helvetica,sans-Serif" font-size="10.00" fill="#ffffff">sorts</text>
</g>
<!-- datastructures_heap&#45;&gt;datastructures_sorts -->
<g id="edge4" class="edge">
<title>datastructures_heap&#45;&gt;datastructures_sorts</title><style>.edge>path:hover{stroke-width:8}</style>
<path fill="none" stroke="black" d="M134.76,-159.31C122.27,-147.87 106.2,-133.17 92.5,-120.63"/>
<polygon fill="#d92626" stroke="black" points="94.49,-117.71 84.75,-113.54 89.77,-122.87 94.49,-117.71"/>
</g>
<!-- datastructures_linear -->
<g id="node4" class="node">
<title>datastructures_linear</title><style>.edge>path:hover{stroke-width:8}</style>
<ellipse fill="#db2f2f" stroke="black" cx="339.64" cy="-396.61" rx="63.78" ry="21.43"/>
<text text-anchor="middle" x="339.64" y="-399.61" font-family="Helvetica,sans-Serif" font-size="10.00" fill="#ffffff">datastructures.</text>
<text text-anchor="middle" x="339.64" y="-388.61" font-family="Helvetica,sans-Serif" font-size="10.00" fill="#ffffff">linear</text>
</g>
<!-- datastructures_linear&#45;&gt;datastructures -->
<g id="edge5" class="edge">
<title>datastructures_linear&#45;&gt;datastructures</title><style>.edge>path:hover{stroke-width:8}</style>
<path fill="none" stroke="black" d="M339.64,-178.42C325.21,-133.95 329.82,-78.76 334.63,-46.36"/>
<polygon fill="#db2f2f" stroke="black" points="338.12,-46.72 336.24,-36.29 331.2,-45.61 338.12,-46.72"/>
</g>
<!-- datastructures_linear&#45;&gt;datastructures_graphs -->
<g id="edge6" class="edge">
<title>datastructures_linear&#45;&gt;datastructures_graphs</title><style>.edge>path:hover{stroke-width:8}</style>
<path fill="none" stroke="black" d="M336.73,-375.38C335.88,-364.48 335.99,-350.93 339.64,-339.39"/>
<path fill="none" stroke="black" d="M339.64,-338.39C360.8,-271.45 356.68,-248.53 339.64,-180.42"/>
<path fill="none" stroke="black" d="M339.64,-178.42C331.24,-152.53 308.91,-131.77 288.36,-117.34"/>
<polygon fill="#db2f2f" stroke="black" points="290.26,-114.4 280,-111.73 286.36,-120.21 290.26,-114.4"/>
</g>
<!-- datastructures_trees_nodes -->
<g id="node9" class="node">
<title>datastructures_trees_nodes</title><style>.edge>path:hover{stroke-width:8}</style>
<ellipse fill="#d92626" stroke="black" cx="431.64" cy="-273.4" rx="63.78" ry="28.98"/>
<text text-anchor="middle" x="431.64" y="-281.9" font-family="Helvetica,sans-Serif" font-size="10.00" fill="#ffffff">datastructures.</text>
<text text-anchor="middle" x="431.64" y="-270.9" font-family="Helvetica,sans-Serif" font-size="10.00" fill="#ffffff">trees.</text>
<text text-anchor="middle" x="431.64" y="-259.9" font-family="Helvetica,sans-Serif" font-size="10.00" fill="#ffffff">nodes</text>
</g>
<!-- datastructures_linear&#45;&gt;datastructures_trees_nodes -->
<g id="edge7" class="edge">
<title>datastructures_linear&#45;&gt;datastructures_trees_nodes</title><style>.edge>path:hover{stroke-width:8}</style>
<path fill="none" stroke="black" d="M339.64,-338.39C345.18,-320.86 359.17,-307.55 374.61,-297.74"/>
<polygon fill="#db2f2f" stroke="black" points="376.44,-300.72 383.29,-292.64 372.9,-294.69 376.44,-300.72"/>
</g>
<!-- datastructures_my_functions -->
<g id="node5" class="node">
<title>datastructures_my_functions</title><style>.edge>path:hover{stroke-width:8}</style>
<ellipse fill="#ce3b3b" stroke="black" cx="109.64" cy="-273.4" rx="63.78" ry="21.43"/>
<text text-anchor="middle" x="109.64" y="-276.4" font-family="Helvetica,sans-Serif" font-size="10.00" fill="#ffffff">datastructures.</text>
<text text-anchor="middle" x="109.64" y="-265.4" font-family="Helvetica,sans-Serif" font-size="10.00" fill="#ffffff">my_functions</text>
</g>
<!-- datastructures_my_functions&#45;&gt;datastructures_heap -->
<g id="edge8" class="edge">
<title>datastructures_my_functions&#45;&gt;datastructures_heap</title><style>.edge>path:hover{stroke-width:8}</style>
<path fill="none" stroke="black" d="M119.62,-252.44C125.85,-239.99 133.97,-223.75 140.93,-209.84"/>
<polygon fill="#ce3b3b" stroke="black" points="144.18,-211.16 145.52,-200.66 137.92,-208.03 144.18,-211.16"/>
</g>
<!-- datastructures_my_functions&#45;&gt;datastructures_sorts -->
<g id="edge9" class="edge">
<title>datastructures_my_functions&#45;&gt;datastructures_sorts</title><style>.edge>path:hover{stroke-width:8}</style>
<path fill="none" stroke="black" d="M99.76,-252.38C94,-239.98 87.04,-223.58 82.64,-208.41 74.59,-180.62 69.58,-147.98 66.74,-124.72"/>
<polygon fill="#ce3b3b" stroke="black" points="70.22,-124.28 65.59,-114.75 63.26,-125.09 70.22,-124.28"/>
</g>
<!-- datastructures_sorts&#45;&gt;datastructures -->
<g id="edge10" class="edge">
<title>datastructures_sorts&#45;&gt;datastructures</title><style>.edge>path:hover{stroke-width:8}</style>
<path fill="none" stroke="black" d="M112.03,-79.38C162.03,-66.11 239.69,-45.51 290.11,-32.14"/>
<polygon fill="#b83d3d" stroke="black" points="291.05,-35.51 299.81,-29.56 289.25,-28.75 291.05,-35.51"/>
</g>
<!-- datastructures_strings -->
<g id="node7" class="node">
<title>datastructures_strings</title><style>.edge>path:hover{stroke-width:8}</style>
<ellipse fill="#c24747" stroke="black" cx="653.64" cy="-93.21" rx="63.78" ry="21.43"/>
<text text-anchor="middle" x="653.64" y="-96.21" font-family="Helvetica,sans-Serif" font-size="10.00" fill="#ffffff">datastructures.</text>
<text text-anchor="middle" x="653.64" y="-85.21" font-family="Helvetica,sans-Serif" font-size="10.00" fill="#ffffff">strings</text>
</g>
<!-- datastructures_strings&#45;&gt;datastructures -->
<g id="edge11" class="edge">
<title>datastructures_strings&#45;&gt;datastructures</title><style>.edge>path:hover{stroke-width:8}</style>
<path fill="none" stroke="black" d="M605.02,-79.35C595.3,-76.86 585.16,-74.3 575.64,-72 512.76,-56.8 440.11,-40.7 392.2,-30.29"/>
<polygon fill="#c24747" stroke="black" points="392.89,-26.86 382.37,-28.16 391.4,-33.7 392.89,-26.86"/>
</g>
<!-- datastructures_trees -->
<g id="node8" class="node">
<title>datastructures_trees</title><style>.edge>path:hover{stroke-width:8}</style>
<ellipse fill="#b83d3d" stroke="black" cx="431.64" cy="-93.21" rx="63.78" ry="21.43"/>
<text text-anchor="middle" x="431.64" y="-96.21" font-family="Helvetica,sans-Serif" font-size="10.00" fill="#ffffff">datastructures.</text>
<text text-anchor="middle" x="431.64" y="-85.21" font-family="Helvetica,sans-Serif" font-size="10.00" fill="#ffffff">trees</text>
</g>
<!-- datastructures_trees&#45;&gt;datastructures -->
<g id="edge12" class="edge">
<title>datastructures_trees&#45;&gt;datastructures</title><style>.edge>path:hover{stroke-width:8}</style>
<path fill="none" stroke="black" d="M407.95,-73.36C395.63,-63.56 380.5,-51.52 367.61,-41.26"/>
<polygon fill="#b83d3d" stroke="black" points="369.52,-38.31 359.52,-34.82 365.16,-43.79 369.52,-38.31"/>
</g>
<!-- datastructures_trees_nodes&#45;&gt;datastructures -->
<g id="edge13" class="edge">
<title>datastructures_trees_nodes&#45;&gt;datastructures</title><style>.edge>path:hover{stroke-width:8}</style>
<path fill="none" stroke="black" d="M481.44,-255.07C503.56,-244.87 527.87,-229.7 542.64,-208.41 571.96,-166.13 580.58,-142.05 561.64,-94.21"/>
</g>
<!-- datastructures_trees_nodes&#45;&gt;datastructures_trees -->
<g id="edge14" class="edge">
<title>datastructures_trees_nodes&#45;&gt;datastructures_trees</title><style>.edge>path:hover{stroke-width:8}</style>
<path fill="none" stroke="black" d="M413.1,-245.63C406.54,-234.62 399.96,-221.41 396.64,-208.41 390.26,-183.44 389.56,-175.2 396.64,-150.43 399.43,-140.66 404.46,-130.95 409.85,-122.41"/>
<polygon fill="#d92626" stroke="black" points="412.85,-124.23 415.53,-113.98 407.04,-120.32 412.85,-124.23"/>
</g>
<!-- datastructures_trees_trees -->
<g id="node10" class="node">
<title>datastructures_trees_trees</title><style>.edge>path:hover{stroke-width:8}</style>
<ellipse fill="#cc3333" stroke="black" cx="469.64" cy="-179.42" rx="63.78" ry="28.98"/>
<text text-anchor="middle" x="469.64" y="-187.92" font-family="Helvetica,sans-Serif" font-size="10.00" fill="#ffffff">datastructures.</text>
<text text-anchor="middle" x="469.64" y="-176.92" font-family="Helvetica,sans-Serif" font-size="10.00" fill="#ffffff">trees.</text>
<text text-anchor="middle" x="469.64" y="-165.92" font-family="Helvetica,sans-Serif" font-size="10.00" fill="#ffffff">trees</text>
</g>
<!-- datastructures_trees_nodes&#45;&gt;datastructures_trees_trees -->
<g id="edge15" class="edge">
<title>datastructures_trees_nodes&#45;&gt;datastructures_trees_trees</title><style>.edge>path:hover{stroke-width:8}</style>
<path fill="none" stroke="black" d="M443.04,-244.8C446.61,-236.16 450.61,-226.48 454.4,-217.31"/>
<polygon fill="#d92626" stroke="black" points="457.66,-218.57 458.25,-208 451.19,-215.9 457.66,-218.57"/>
</g>
<!-- datastructures_trees_trees&#45;&gt;datastructures -->
<g id="edge16" class="edge">
<title>datastructures_trees_trees&#45;&gt;datastructures</title><style>.edge>path:hover{stroke-width:8}</style>
<path fill="none" stroke="black" d="M516.06,-159.58C544.24,-144.94 572.8,-122.4 561.64,-94.21"/>
<path fill="none" stroke="black" d="M561.64,-92.21C549.08,-60.49 457.25,-38.86 395.7,-27.74"/>
<polygon fill="#cc3333" stroke="black" points="396.18,-24.27 385.72,-25.98 394.96,-31.17 396.18,-24.27"/>
</g>
<!-- datastructures_trees_trees&#45;&gt;datastructures_trees -->
<g id="edge17" class="edge">
<title>datastructures_trees_trees&#45;&gt;datastructures_trees</title><style>.edge>path:hover{stroke-width:8}</style>
<path fill="none" stroke="black" d="M457.2,-150.85C453.25,-142.11 448.88,-132.42 444.89,-123.57"/>
<polygon fill="#cc3333" stroke="black" points="448.04,-122.04 440.74,-114.37 441.66,-124.92 448.04,-122.04"/>
</g>
</g>
</svg>
